<?xml version="1.0" encoding="UTF-8"?>
<!DOCTYPE svg PUBLIC "-//W3C//DTD SVG 1.1//EN" "http://www.w3.org/Graphics/SVG/1.1/DTD/svg11.dtd">
<svg xmlns="http://www.w3.org/2000/svg" version="1.1" width="64px" height="57px" style="shape-rendering:geometricPrecision; text-rendering:geometricPrecision; image-rendering:optimizeQuality; fill-rule:evenodd; clip-rule:evenodd" xmlns:xlink="http://www.w3.org/1999/xlink">
<g><path style="opacity:1" fill="#fafdfd" d="M -0.5,-0.5 C 10.8333,-0.5 22.1667,-0.5 33.5,-0.5C 34.0444,3.10048 35.0444,6.60048 36.5,10C 35.9444,11.0111 35.2778,11.8444 34.5,12.5C 33.448,12.3505 32.448,12.5172 31.5,13C 25.5694,18.4242 20.2361,24.2575 15.5,30.5C 15.0225,34.6896 16.6892,37.6896 20.5,39.5C 21.5,41.1667 22.8333,42.5 24.5,43.5C 26.9849,47.3276 30.3183,49.9943 34.5,51.5C 36.299,51.423 37.9656,50.923 39.5,50C 42.0362,47.295 44.7029,44.795 47.5,42.5C 48.3764,42.3691 49.0431,42.7025 49.5,43.5C 51.5064,47.8629 53.5064,52.1962 55.5,56.5C 36.8333,56.5 18.1667,56.5 -0.5,56.5C -0.5,37.5 -0.5,18.5 -0.5,-0.5 Z"/></g>
<g><path style="opacity:1" fill="#f7fdfc" d="M 33.5,-0.5 C 43.5,-0.5 53.5,-0.5 63.5,-0.5C 63.5,18.5 63.5,37.5 63.5,56.5C 60.8333,56.5 58.1667,56.5 55.5,56.5C 53.5064,52.1962 51.5064,47.8629 49.5,43.5C 49.0431,42.7025 48.3764,42.3691 47.5,42.5C 49.8327,39.9974 51.9993,37.3307 54,34.5C 54.6667,32.5 54.6667,30.5 54,28.5C 53.6174,27.944 53.1174,27.6107 52.5,27.5C 51.5,25.8333 50.1667,24.5 48.5,23.5C 46.8333,21.1667 44.8333,19.1667 42.5,17.5C 40.8413,14.167 38.1746,12.5003 34.5,12.5C 35.2778,11.8444 35.9444,11.0111 36.5,10C 35.0444,6.60048 34.0444,3.10048 33.5,-0.5 Z"/></g>
<g><path style="opacity:1" fill="#08cddc" d="M 34.5,12.5 C 38.1746,12.5003 40.8413,14.167 42.5,17.5C 34.011,22.7807 25.011,27.114 15.5,30.5C 20.2361,24.2575 25.5694,18.4242 31.5,13C 32.448,12.5172 33.448,12.3505 34.5,12.5 Z"/></g>
<g><path style="opacity:1" fill="#0dbfcc" d="M 42.5,17.5 C 44.8333,19.1667 46.8333,21.1667 48.5,23.5C 45.4968,24.6662 42.8302,26.3328 40.5,28.5C 37.6837,28.8758 35.1837,30.5425 33,33.5C 29.0371,30.5532 28.2037,30.8866 30.5,34.5C 26.4889,35.0444 23.1556,36.711 20.5,39.5C 16.6892,37.6896 15.0225,34.6896 15.5,30.5C 25.011,27.114 34.011,22.7807 42.5,17.5 Z"/></g>
<g><path style="opacity:1" fill="#e8f7f9" d="M 40.5,28.5 C 37.8085,31.1951 35.4752,34.1951 33.5,37.5C 32.7124,36.2299 31.7124,35.2299 30.5,34.5C 28.2037,30.8866 29.0371,30.5532 33,33.5C 35.1837,30.5425 37.6837,28.8758 40.5,28.5 Z"/></g>
<g><path style="opacity:1" fill="#079ca8" d="M 52.5,27.5 C 53.1174,27.6107 53.6174,27.944 54,28.5C 54.6667,30.5 54.6667,32.5 54,34.5C 51.9993,37.3307 49.8327,39.9974 47.5,42.5C 44.7029,44.795 42.0362,47.295 39.5,50C 37.9656,50.923 36.299,51.423 34.5,51.5C 30.3183,49.9943 26.9849,47.3276 24.5,43.5C 34.2554,39.1156 43.5887,33.7823 52.5,27.5 Z"/></g>
<g><path style="opacity:1" fill="#07aebb" d="M 48.5,23.5 C 50.1667,24.5 51.5,25.8333 52.5,27.5C 43.5887,33.7823 34.2554,39.1156 24.5,43.5C 22.8333,42.5 21.5,41.1667 20.5,39.5C 23.1556,36.711 26.4889,35.0444 30.5,34.5C 31.7124,35.2299 32.7124,36.2299 33.5,37.5C 35.4752,34.1951 37.8085,31.1951 40.5,28.5C 42.8302,26.3328 45.4968,24.6662 48.5,23.5 Z"/></g>
</svg>
